<svg width="20" height="20" viewBox="0 0 20 20" fill="none" xmlns="http://www.w3.org/2000/svg">
<path d="M20 10C19.9995 7.348 18.9457 4.80477 17.0705 2.92952C15.1952 1.05427 12.652 0.000530241 10 0V2C11.5821 2.00036 13.1286 2.46964 14.4441 3.34854C15.7596 4.22744 16.7851 5.47653 17.391 6.938C17.7931 7.90877 18.0001 8.94924 18 10H20ZM0 8V3C0 2.73478 0.105357 2.48043 0.292893 2.29289C0.48043 2.10536 0.734784 2 1 2H6C6.26522 2 6.51957 2.10536 6.70711 2.29289C6.89464 2.48043 7 2.73478 7 3V7C7 7.26522 6.89464 7.51957 6.70711 7.70711C6.51957 7.89464 6.26522 8 6 8H4C4 10.1217 4.84285 12.1566 6.34315 13.6569C7.84344 15.1571 9.87827 16 12 16V14C12 13.7348 12.1054 13.4804 12.2929 13.2929C12.4804 13.1054 12.7348 13 13 13H17C17.2652 13 17.5196 13.1054 17.7071 13.2929C17.8946 13.4804 18 13.7348 18 14V19C18 19.2652 17.8946 19.5196 17.7071 19.7071C17.5196 19.8946 17.2652 20 17 20H12C5.373 20 0 14.627 0 8Z" fill="white"/>
<path d="M15.543 9.704C15.8449 10.4318 16.0002 11.2121 16 12H14.2C14.2001 11.4484 14.0916 10.9022 13.8806 10.3926C13.6695 9.88295 13.3602 9.41989 12.9701 9.02986C12.5801 8.63983 12.1171 8.33046 11.6074 8.11944C11.0978 7.90841 10.5516 7.79987 10 7.8V6C11.1867 6.00006 12.3466 6.352 13.3333 7.0113C14.3199 7.6706 15.0889 8.60767 15.543 9.704Z" fill="white"/>
</svg>
