<svg width="36" height="36" viewBox="0 0 36 36" fill="none" xmlns="http://www.w3.org/2000/svg">
<path d="M36 18C35.999 13.2264 34.1023 8.64858 30.7269 5.27313C27.3514 1.89768 22.7736 0.000954435 18 0V3.6C20.8478 3.60065 23.6315 4.44534 25.9994 6.02737C28.3673 7.60939 30.2132 9.85775 31.3038 12.4884C32.0276 14.2358 32.4001 16.1086 32.4 18H36ZM0 14.4V5.4C0 4.92261 0.189642 4.46477 0.527208 4.12721C0.864773 3.78964 1.32261 3.6 1.8 3.6H10.8C11.2774 3.6 11.7352 3.78964 12.0728 4.12721C12.4104 4.46477 12.6 4.92261 12.6 5.4V12.6C12.6 13.0774 12.4104 13.5352 12.0728 13.8728C11.7352 14.2104 11.2774 14.4 10.8 14.4H7.2C7.2 18.2191 8.71714 21.8818 11.4177 24.5823C14.1182 27.2829 17.7809 28.8 21.6 28.8V25.2C21.6 24.7226 21.7896 24.2648 22.1272 23.9272C22.4648 23.5896 22.9226 23.4 23.4 23.4H30.6C31.0774 23.4 31.5352 23.5896 31.8728 23.9272C32.2104 24.2648 32.4 24.7226 32.4 25.2V34.2C32.4 34.6774 32.2104 35.1352 31.8728 35.4728C31.5352 35.8104 31.0774 36 30.6 36H21.6C9.6714 36 0 26.3286 0 14.4Z" fill="#00470F"/>
<path d="M27.9774 17.467C28.5208 18.7771 28.8003 20.1815 28.8 21.5998H25.56C25.5602 20.6069 25.3649 19.6238 24.985 18.7064C24.6052 17.7891 24.0483 16.9556 23.3463 16.2536C22.6442 15.5515 21.8107 14.9946 20.8934 14.6148C19.976 14.235 18.9929 14.0396 18 14.0398V10.7998C20.136 10.7999 22.2239 11.4334 23.9999 12.6201C25.7759 13.8069 27.16 15.4936 27.9774 17.467Z" fill="#00470F"/>
</svg>
