<svg width="18" height="26" viewBox="0 0 18 26" fill="none" xmlns="http://www.w3.org/2000/svg">
<path d="M9 11.8957C8.14752 11.8957 7.32995 11.5658 6.72716 10.9788C6.12436 10.3917 5.78571 9.59546 5.78571 8.76522C5.78571 7.93497 6.12436 7.13874 6.72716 6.55167C7.32995 5.9646 8.14752 5.63478 9 5.63478C9.85248 5.63478 10.67 5.9646 11.2728 6.55167C11.8756 7.13874 12.2143 7.93497 12.2143 8.76522C12.2143 9.17631 12.1311 9.58338 11.9696 9.96318C11.8081 10.343 11.5713 10.6881 11.2728 10.9788C10.9744 11.2695 10.62 11.5 10.2301 11.6574C9.84008 11.8147 9.42211 11.8957 9 11.8957ZM9 0C6.61305 0 4.32387 0.923476 2.63604 2.56727C0.948211 4.21107 0 6.44054 0 8.76522C0 15.3391 9 25.0435 9 25.0435C9 25.0435 18 15.3391 18 8.76522C18 6.44054 17.0518 4.21107 15.364 2.56727C13.6761 0.923476 11.3869 0 9 0Z" fill="white"/>
</svg>
