<svg width="41" height="40" viewBox="0 0 41 40" fill="none" xmlns="http://www.w3.org/2000/svg">
<mask id="path-1-outside-1_276_310" maskUnits="userSpaceOnUse" x="0" y="0" width="41" height="40" fill="black">
<rect fill="white" width="41" height="40"/>
<path d="M37.0849 20.3959C38.9736 18.2698 40 15.5711 40 12.6681C40 9.56059 38.7683 6.61665 36.5512 4.40869C32.1581 0.033672 25.0963 -0.12988 20.4979 3.91804C18.3629 2.03719 15.6121 1.01499 12.7381 1.01499C9.61777 1.01499 6.66166 2.24163 4.44458 4.44958C0.0514764 8.78372 -0.153809 15.8165 3.91084 20.3959L2.84336 21.459C2.18644 22.1132 1.81693 23.0128 1.77587 23.9532C1.77587 24.8936 2.14539 25.7932 2.8023 26.4474C3.45921 27.1016 4.32141 27.4696 5.26572 27.4696C5.38889 27.4696 5.55312 27.4696 5.67629 27.4287C5.67629 27.5513 5.63524 27.674 5.63524 27.7967C5.63524 28.7371 6.00475 29.6366 6.66166 30.2908C7.31858 30.945 8.18077 31.313 9.12509 31.313C9.24826 31.313 9.41249 31.313 9.53566 31.2722C9.41249 32.2944 9.74094 33.3574 10.521 34.1343C11.1779 34.7885 12.0401 35.1565 12.9845 35.1565C13.1076 35.1565 13.2719 35.1565 13.395 35.1156C13.395 35.2383 13.354 35.361 13.354 35.4836C13.354 36.4241 13.7235 37.3236 14.3804 37.9778C15.0373 38.632 15.8995 39 16.8438 39C17.7881 39 18.6914 38.632 19.3894 37.9369L20.4568 36.8738L21.5243 37.9369C22.1812 38.5911 23.0845 38.9591 24.0288 39C24.0288 39 24.0288 39 24.0699 39C25.0142 39 25.8764 38.632 26.5333 37.9778C27.1902 37.3236 27.5597 36.4241 27.5597 35.4836C27.5597 35.361 27.5597 35.2383 27.5187 35.1156C28.5451 35.2383 29.6126 34.9112 30.3926 34.1343C31.0496 33.4801 31.4191 32.5806 31.4191 31.6401C31.4191 31.5175 31.4191 31.3948 31.378 31.2722C32.4044 31.3948 33.4719 31.0677 34.252 30.2908C34.9089 29.6366 35.2784 28.7371 35.2784 27.7967C35.2784 27.674 35.2784 27.5513 35.2374 27.4287C36.2638 27.5513 37.3313 27.2242 38.1114 26.4474C38.7683 25.7932 39.1378 24.8936 39.1378 23.9532C39.1378 23.0128 38.7683 22.1132 38.0703 21.459L37.0849 20.3959ZM35.4427 5.51267C37.3723 7.43441 38.4398 9.96947 38.4398 12.6681C38.4398 15.1214 37.5776 17.452 35.9764 19.292L24.9321 8.29306C24.6447 8.00684 24.152 8.00684 23.8235 8.29306L17.5007 14.5898C17.1312 14.9578 16.6385 15.1623 16.1048 15.2031C15.571 15.2031 15.0784 14.9987 14.7499 14.6307C14.3804 14.2627 14.1751 13.7721 14.1751 13.2405C14.1751 12.709 14.3804 12.2183 14.791 11.8503L16.8028 9.84681L21.1548 5.51267C25.0142 1.58742 31.5012 1.58742 35.4427 5.51267ZM5.26572 25.9158C4.73198 25.9158 4.2393 25.7114 3.91084 25.3434C3.54133 24.9754 3.33604 24.4847 3.33604 23.9532C3.33604 23.4216 3.54133 22.931 3.9519 22.563L7.64703 18.8831C8.01655 18.5151 8.55029 18.3106 9.08403 18.3106C9.61777 18.3106 10.1105 18.5151 10.4389 18.8831C10.8084 19.2511 11.0137 19.7417 11.0137 20.2733C11.0137 20.8048 10.8084 21.2955 10.3979 21.6635L6.70272 25.3434C6.33321 25.7114 5.79947 25.9158 5.26572 25.9158ZM9.16614 29.8002C8.6324 29.8002 8.13972 29.5957 7.81126 29.2278C7.44175 28.8598 7.23646 28.3691 7.23646 27.8376C7.23646 27.306 7.44175 26.8154 7.85232 26.4474L11.5475 22.7674C11.917 22.3994 12.4507 22.1541 12.9845 22.1541C13.5182 22.1541 14.0109 22.3586 14.3393 22.7265C15.1194 23.5034 15.0784 24.7301 14.2983 25.5069L10.6031 29.1869C10.1926 29.5957 9.69989 29.8002 9.16614 29.8002ZM13.0255 33.6437C12.4918 33.6437 11.9991 33.4392 11.6706 33.0712C10.8905 32.2944 10.9316 31.0677 11.7117 30.2908L15.4068 26.6109C15.7763 26.2429 16.3101 25.9976 16.8438 25.9976C17.3776 25.9976 17.8702 26.202 18.1987 26.57C18.9788 27.3469 18.9377 28.5735 18.1576 29.3504L14.4625 33.0303C14.093 33.4392 13.5592 33.6437 13.0255 33.6437ZM18.3219 36.9147C17.9524 37.2827 17.4186 37.528 16.8849 37.528C16.3511 37.528 15.8584 37.3236 15.53 36.9556C15.1605 36.5876 14.9552 36.0969 14.9552 35.5654C14.9552 35.0339 15.1605 34.5432 15.571 34.1752L19.2662 30.4953C19.6357 30.1273 20.1694 29.882 20.7032 29.882C21.2369 29.882 21.7296 30.0864 22.0581 30.4544C22.8381 31.2313 22.7971 32.4579 22.017 33.2348L18.3219 36.9147ZM37.0849 25.3434C36.3049 26.1203 35.0732 26.0794 34.2931 25.3025C34.0057 25.0163 33.513 25.0163 33.1845 25.3025C33.0203 25.466 32.9382 25.6705 32.9382 25.834C32.9382 26.0385 33.0203 26.2429 33.1845 26.3656C33.554 26.7336 33.7593 27.2242 33.8004 27.7558C33.8004 28.2873 33.5951 28.778 33.2256 29.146C32.4455 29.9228 31.2138 29.882 30.4337 29.1051C30.1463 28.8189 29.6536 28.8189 29.3252 29.1051C29.1609 29.2686 29.0788 29.4731 29.0788 29.6366C29.0788 29.8411 29.1609 30.0455 29.3252 30.1682C29.6947 30.5362 29.9 31.0677 29.9 31.5584C29.9 32.0899 29.6947 32.5806 29.3252 32.9486C28.5451 33.7254 27.3134 33.6846 26.5333 32.9077C26.2459 32.6215 25.7532 32.6215 25.4247 32.9077C25.2605 33.0712 25.1784 33.2757 25.1784 33.4392C25.1784 33.6437 25.2605 33.8481 25.4247 33.9708C25.7943 34.3388 25.9995 34.8294 25.9995 35.361C25.9995 35.8925 25.7943 36.3832 25.4247 36.7512C25.0552 37.1191 24.5625 37.3236 24.0699 37.3236C23.5361 37.3236 23.0434 37.1191 22.6739 36.7512L21.6064 35.6881L23.1255 34.1752C24.5215 32.785 24.5215 30.5362 23.1666 29.1869C22.5097 28.5327 21.6475 28.1647 20.7032 28.1647C20.58 28.1647 20.4158 28.1647 20.2926 28.2055C20.4158 27.1833 20.0873 26.1203 19.3072 25.3434C18.6503 24.6892 17.7881 24.3212 16.8438 24.3212C16.7206 24.3212 16.5564 24.3212 16.4332 24.3621C16.5564 23.3399 16.228 22.2768 15.4479 21.4999C14.791 20.8457 13.9288 20.4777 12.9845 20.4777C12.8613 20.4777 12.6971 20.4777 12.5739 20.5186C12.5739 20.3959 12.6149 20.2733 12.6149 20.1506C12.6149 19.2102 12.2454 18.3106 11.5885 17.6564C10.9316 17.0022 10.0694 16.6342 9.12509 16.6342C8.18077 16.6342 7.27752 17.0022 6.57955 17.6973L5.06044 19.2102C1.61164 15.244 1.77587 9.1926 5.59418 5.4309C7.52386 3.50916 10.0694 2.44607 12.7792 2.44607C15.2426 2.44607 17.5828 3.30472 19.4304 4.89935L17.8292 6.53487L13.6003 10.7463C12.9434 11.4006 12.5739 12.3001 12.5328 13.2405C12.5328 14.1809 12.9023 15.0805 13.5592 15.7347C14.2162 16.3889 15.0784 16.7569 16.0227 16.7569C16.0227 16.7569 16.0227 16.7569 16.0637 16.7569C17.008 16.7569 17.9113 16.3889 18.5682 15.6938L24.3573 9.92858L37.0439 22.563C37.4134 22.931 37.6187 23.4216 37.6187 23.9532C37.6597 24.4847 37.4545 24.9754 37.0849 25.3434Z"/>
</mask>
<path d="M37.0849 20.3959C38.9736 18.2698 40 15.5711 40 12.6681C40 9.56059 38.7683 6.61665 36.5512 4.40869C32.1581 0.033672 25.0963 -0.12988 20.4979 3.91804C18.3629 2.03719 15.6121 1.01499 12.7381 1.01499C9.61777 1.01499 6.66166 2.24163 4.44458 4.44958C0.0514764 8.78372 -0.153809 15.8165 3.91084 20.3959L2.84336 21.459C2.18644 22.1132 1.81693 23.0128 1.77587 23.9532C1.77587 24.8936 2.14539 25.7932 2.8023 26.4474C3.45921 27.1016 4.32141 27.4696 5.26572 27.4696C5.38889 27.4696 5.55312 27.4696 5.67629 27.4287C5.67629 27.5513 5.63524 27.674 5.63524 27.7967C5.63524 28.7371 6.00475 29.6366 6.66166 30.2908C7.31858 30.945 8.18077 31.313 9.12509 31.313C9.24826 31.313 9.41249 31.313 9.53566 31.2722C9.41249 32.2944 9.74094 33.3574 10.521 34.1343C11.1779 34.7885 12.0401 35.1565 12.9845 35.1565C13.1076 35.1565 13.2719 35.1565 13.395 35.1156C13.395 35.2383 13.354 35.361 13.354 35.4836C13.354 36.4241 13.7235 37.3236 14.3804 37.9778C15.0373 38.632 15.8995 39 16.8438 39C17.7881 39 18.6914 38.632 19.3894 37.9369L20.4568 36.8738L21.5243 37.9369C22.1812 38.5911 23.0845 38.9591 24.0288 39C24.0288 39 24.0288 39 24.0699 39C25.0142 39 25.8764 38.632 26.5333 37.9778C27.1902 37.3236 27.5597 36.4241 27.5597 35.4836C27.5597 35.361 27.5597 35.2383 27.5187 35.1156C28.5451 35.2383 29.6126 34.9112 30.3926 34.1343C31.0496 33.4801 31.4191 32.5806 31.4191 31.6401C31.4191 31.5175 31.4191 31.3948 31.378 31.2722C32.4044 31.3948 33.4719 31.0677 34.252 30.2908C34.9089 29.6366 35.2784 28.7371 35.2784 27.7967C35.2784 27.674 35.2784 27.5513 35.2374 27.4287C36.2638 27.5513 37.3313 27.2242 38.1114 26.4474C38.7683 25.7932 39.1378 24.8936 39.1378 23.9532C39.1378 23.0128 38.7683 22.1132 38.0703 21.459L37.0849 20.3959ZM35.4427 5.51267C37.3723 7.43441 38.4398 9.96947 38.4398 12.6681C38.4398 15.1214 37.5776 17.452 35.9764 19.292L24.9321 8.29306C24.6447 8.00684 24.152 8.00684 23.8235 8.29306L17.5007 14.5898C17.1312 14.9578 16.6385 15.1623 16.1048 15.2031C15.571 15.2031 15.0784 14.9987 14.7499 14.6307C14.3804 14.2627 14.1751 13.7721 14.1751 13.2405C14.1751 12.709 14.3804 12.2183 14.791 11.8503L16.8028 9.84681L21.1548 5.51267C25.0142 1.58742 31.5012 1.58742 35.4427 5.51267ZM5.26572 25.9158C4.73198 25.9158 4.2393 25.7114 3.91084 25.3434C3.54133 24.9754 3.33604 24.4847 3.33604 23.9532C3.33604 23.4216 3.54133 22.931 3.9519 22.563L7.64703 18.8831C8.01655 18.5151 8.55029 18.3106 9.08403 18.3106C9.61777 18.3106 10.1105 18.5151 10.4389 18.8831C10.8084 19.2511 11.0137 19.7417 11.0137 20.2733C11.0137 20.8048 10.8084 21.2955 10.3979 21.6635L6.70272 25.3434C6.33321 25.7114 5.79947 25.9158 5.26572 25.9158ZM9.16614 29.8002C8.6324 29.8002 8.13972 29.5957 7.81126 29.2278C7.44175 28.8598 7.23646 28.3691 7.23646 27.8376C7.23646 27.306 7.44175 26.8154 7.85232 26.4474L11.5475 22.7674C11.917 22.3994 12.4507 22.1541 12.9845 22.1541C13.5182 22.1541 14.0109 22.3586 14.3393 22.7265C15.1194 23.5034 15.0784 24.7301 14.2983 25.5069L10.6031 29.1869C10.1926 29.5957 9.69989 29.8002 9.16614 29.8002ZM13.0255 33.6437C12.4918 33.6437 11.9991 33.4392 11.6706 33.0712C10.8905 32.2944 10.9316 31.0677 11.7117 30.2908L15.4068 26.6109C15.7763 26.2429 16.3101 25.9976 16.8438 25.9976C17.3776 25.9976 17.8702 26.202 18.1987 26.57C18.9788 27.3469 18.9377 28.5735 18.1576 29.3504L14.4625 33.0303C14.093 33.4392 13.5592 33.6437 13.0255 33.6437ZM18.3219 36.9147C17.9524 37.2827 17.4186 37.528 16.8849 37.528C16.3511 37.528 15.8584 37.3236 15.53 36.9556C15.1605 36.5876 14.9552 36.0969 14.9552 35.5654C14.9552 35.0339 15.1605 34.5432 15.571 34.1752L19.2662 30.4953C19.6357 30.1273 20.1694 29.882 20.7032 29.882C21.2369 29.882 21.7296 30.0864 22.0581 30.4544C22.8381 31.2313 22.7971 32.4579 22.017 33.2348L18.3219 36.9147ZM37.0849 25.3434C36.3049 26.1203 35.0732 26.0794 34.2931 25.3025C34.0057 25.0163 33.513 25.0163 33.1845 25.3025C33.0203 25.466 32.9382 25.6705 32.9382 25.834C32.9382 26.0385 33.0203 26.2429 33.1845 26.3656C33.554 26.7336 33.7593 27.2242 33.8004 27.7558C33.8004 28.2873 33.5951 28.778 33.2256 29.146C32.4455 29.9228 31.2138 29.882 30.4337 29.1051C30.1463 28.8189 29.6536 28.8189 29.3252 29.1051C29.1609 29.2686 29.0788 29.4731 29.0788 29.6366C29.0788 29.8411 29.1609 30.0455 29.3252 30.1682C29.6947 30.5362 29.9 31.0677 29.9 31.5584C29.9 32.0899 29.6947 32.5806 29.3252 32.9486C28.5451 33.7254 27.3134 33.6846 26.5333 32.9077C26.2459 32.6215 25.7532 32.6215 25.4247 32.9077C25.2605 33.0712 25.1784 33.2757 25.1784 33.4392C25.1784 33.6437 25.2605 33.8481 25.4247 33.9708C25.7943 34.3388 25.9995 34.8294 25.9995 35.361C25.9995 35.8925 25.7943 36.3832 25.4247 36.7512C25.0552 37.1191 24.5625 37.3236 24.0699 37.3236C23.5361 37.3236 23.0434 37.1191 22.6739 36.7512L21.6064 35.6881L23.1255 34.1752C24.5215 32.785 24.5215 30.5362 23.1666 29.1869C22.5097 28.5327 21.6475 28.1647 20.7032 28.1647C20.58 28.1647 20.4158 28.1647 20.2926 28.2055C20.4158 27.1833 20.0873 26.1203 19.3072 25.3434C18.6503 24.6892 17.7881 24.3212 16.8438 24.3212C16.7206 24.3212 16.5564 24.3212 16.4332 24.3621C16.5564 23.3399 16.228 22.2768 15.4479 21.4999C14.791 20.8457 13.9288 20.4777 12.9845 20.4777C12.8613 20.4777 12.6971 20.4777 12.5739 20.5186C12.5739 20.3959 12.6149 20.2733 12.6149 20.1506C12.6149 19.2102 12.2454 18.3106 11.5885 17.6564C10.9316 17.0022 10.0694 16.6342 9.12509 16.6342C8.18077 16.6342 7.27752 17.0022 6.57955 17.6973L5.06044 19.2102C1.61164 15.244 1.77587 9.1926 5.59418 5.4309C7.52386 3.50916 10.0694 2.44607 12.7792 2.44607C15.2426 2.44607 17.5828 3.30472 19.4304 4.89935L17.8292 6.53487L13.6003 10.7463C12.9434 11.4006 12.5739 12.3001 12.5328 13.2405C12.5328 14.1809 12.9023 15.0805 13.5592 15.7347C14.2162 16.3889 15.0784 16.7569 16.0227 16.7569C16.0227 16.7569 16.0227 16.7569 16.0637 16.7569C17.008 16.7569 17.9113 16.3889 18.5682 15.6938L24.3573 9.92858L37.0439 22.563C37.4134 22.931 37.6187 23.4216 37.6187 23.9532C37.6597 24.4847 37.4545 24.9754 37.0849 25.3434Z" fill="white"/>
<path d="M37.0849 20.3959C38.9736 18.2698 40 15.5711 40 12.6681C40 9.56059 38.7683 6.61665 36.5512 4.40869C32.1581 0.033672 25.0963 -0.12988 20.4979 3.91804C18.3629 2.03719 15.6121 1.01499 12.7381 1.01499C9.61777 1.01499 6.66166 2.24163 4.44458 4.44958C0.0514764 8.78372 -0.153809 15.8165 3.91084 20.3959L2.84336 21.459C2.18644 22.1132 1.81693 23.0128 1.77587 23.9532C1.77587 24.8936 2.14539 25.7932 2.8023 26.4474C3.45921 27.1016 4.32141 27.4696 5.26572 27.4696C5.38889 27.4696 5.55312 27.4696 5.67629 27.4287C5.67629 27.5513 5.63524 27.674 5.63524 27.7967C5.63524 28.7371 6.00475 29.6366 6.66166 30.2908C7.31858 30.945 8.18077 31.313 9.12509 31.313C9.24826 31.313 9.41249 31.313 9.53566 31.2722C9.41249 32.2944 9.74094 33.3574 10.521 34.1343C11.1779 34.7885 12.0401 35.1565 12.9845 35.1565C13.1076 35.1565 13.2719 35.1565 13.395 35.1156C13.395 35.2383 13.354 35.361 13.354 35.4836C13.354 36.4241 13.7235 37.3236 14.3804 37.9778C15.0373 38.632 15.8995 39 16.8438 39C17.7881 39 18.6914 38.632 19.3894 37.9369L20.4568 36.8738L21.5243 37.9369C22.1812 38.5911 23.0845 38.9591 24.0288 39C24.0288 39 24.0288 39 24.0699 39C25.0142 39 25.8764 38.632 26.5333 37.9778C27.1902 37.3236 27.5597 36.4241 27.5597 35.4836C27.5597 35.361 27.5597 35.2383 27.5187 35.1156C28.5451 35.2383 29.6126 34.9112 30.3926 34.1343C31.0496 33.4801 31.4191 32.5806 31.4191 31.6401C31.4191 31.5175 31.4191 31.3948 31.378 31.2722C32.4044 31.3948 33.4719 31.0677 34.252 30.2908C34.9089 29.6366 35.2784 28.7371 35.2784 27.7967C35.2784 27.674 35.2784 27.5513 35.2374 27.4287C36.2638 27.5513 37.3313 27.2242 38.1114 26.4474C38.7683 25.7932 39.1378 24.8936 39.1378 23.9532C39.1378 23.0128 38.7683 22.1132 38.0703 21.459L37.0849 20.3959ZM35.4427 5.51267C37.3723 7.43441 38.4398 9.96947 38.4398 12.6681C38.4398 15.1214 37.5776 17.452 35.9764 19.292L24.9321 8.29306C24.6447 8.00684 24.152 8.00684 23.8235 8.29306L17.5007 14.5898C17.1312 14.9578 16.6385 15.1623 16.1048 15.2031C15.571 15.2031 15.0784 14.9987 14.7499 14.6307C14.3804 14.2627 14.1751 13.7721 14.1751 13.2405C14.1751 12.709 14.3804 12.2183 14.791 11.8503L16.8028 9.84681L21.1548 5.51267C25.0142 1.58742 31.5012 1.58742 35.4427 5.51267ZM5.26572 25.9158C4.73198 25.9158 4.2393 25.7114 3.91084 25.3434C3.54133 24.9754 3.33604 24.4847 3.33604 23.9532C3.33604 23.4216 3.54133 22.931 3.9519 22.563L7.64703 18.8831C8.01655 18.5151 8.55029 18.3106 9.08403 18.3106C9.61777 18.3106 10.1105 18.5151 10.4389 18.8831C10.8084 19.2511 11.0137 19.7417 11.0137 20.2733C11.0137 20.8048 10.8084 21.2955 10.3979 21.6635L6.70272 25.3434C6.33321 25.7114 5.79947 25.9158 5.26572 25.9158ZM9.16614 29.8002C8.6324 29.8002 8.13972 29.5957 7.81126 29.2278C7.44175 28.8598 7.23646 28.3691 7.23646 27.8376C7.23646 27.306 7.44175 26.8154 7.85232 26.4474L11.5475 22.7674C11.917 22.3994 12.4507 22.1541 12.9845 22.1541C13.5182 22.1541 14.0109 22.3586 14.3393 22.7265C15.1194 23.5034 15.0784 24.7301 14.2983 25.5069L10.6031 29.1869C10.1926 29.5957 9.69989 29.8002 9.16614 29.8002ZM13.0255 33.6437C12.4918 33.6437 11.9991 33.4392 11.6706 33.0712C10.8905 32.2944 10.9316 31.0677 11.7117 30.2908L15.4068 26.6109C15.7763 26.2429 16.3101 25.9976 16.8438 25.9976C17.3776 25.9976 17.8702 26.202 18.1987 26.57C18.9788 27.3469 18.9377 28.5735 18.1576 29.3504L14.4625 33.0303C14.093 33.4392 13.5592 33.6437 13.0255 33.6437ZM18.3219 36.9147C17.9524 37.2827 17.4186 37.528 16.8849 37.528C16.3511 37.528 15.8584 37.3236 15.53 36.9556C15.1605 36.5876 14.9552 36.0969 14.9552 35.5654C14.9552 35.0339 15.1605 34.5432 15.571 34.1752L19.2662 30.4953C19.6357 30.1273 20.1694 29.882 20.7032 29.882C21.2369 29.882 21.7296 30.0864 22.0581 30.4544C22.8381 31.2313 22.7971 32.4579 22.017 33.2348L18.3219 36.9147ZM37.0849 25.3434C36.3049 26.1203 35.0732 26.0794 34.2931 25.3025C34.0057 25.0163 33.513 25.0163 33.1845 25.3025C33.0203 25.466 32.9382 25.6705 32.9382 25.834C32.9382 26.0385 33.0203 26.2429 33.1845 26.3656C33.554 26.7336 33.7593 27.2242 33.8004 27.7558C33.8004 28.2873 33.5951 28.778 33.2256 29.146C32.4455 29.9228 31.2138 29.882 30.4337 29.1051C30.1463 28.8189 29.6536 28.8189 29.3252 29.1051C29.1609 29.2686 29.0788 29.4731 29.0788 29.6366C29.0788 29.8411 29.1609 30.0455 29.3252 30.1682C29.6947 30.5362 29.9 31.0677 29.9 31.5584C29.9 32.0899 29.6947 32.5806 29.3252 32.9486C28.5451 33.7254 27.3134 33.6846 26.5333 32.9077C26.2459 32.6215 25.7532 32.6215 25.4247 32.9077C25.2605 33.0712 25.1784 33.2757 25.1784 33.4392C25.1784 33.6437 25.2605 33.8481 25.4247 33.9708C25.7943 34.3388 25.9995 34.8294 25.9995 35.361C25.9995 35.8925 25.7943 36.3832 25.4247 36.7512C25.0552 37.1191 24.5625 37.3236 24.0699 37.3236C23.5361 37.3236 23.0434 37.1191 22.6739 36.7512L21.6064 35.6881L23.1255 34.1752C24.5215 32.785 24.5215 30.5362 23.1666 29.1869C22.5097 28.5327 21.6475 28.1647 20.7032 28.1647C20.58 28.1647 20.4158 28.1647 20.2926 28.2055C20.4158 27.1833 20.0873 26.1203 19.3072 25.3434C18.6503 24.6892 17.7881 24.3212 16.8438 24.3212C16.7206 24.3212 16.5564 24.3212 16.4332 24.3621C16.5564 23.3399 16.228 22.2768 15.4479 21.4999C14.791 20.8457 13.9288 20.4777 12.9845 20.4777C12.8613 20.4777 12.6971 20.4777 12.5739 20.5186C12.5739 20.3959 12.6149 20.2733 12.6149 20.1506C12.6149 19.2102 12.2454 18.3106 11.5885 17.6564C10.9316 17.0022 10.0694 16.6342 9.12509 16.6342C8.18077 16.6342 7.27752 17.0022 6.57955 17.6973L5.06044 19.2102C1.61164 15.244 1.77587 9.1926 5.59418 5.4309C7.52386 3.50916 10.0694 2.44607 12.7792 2.44607C15.2426 2.44607 17.5828 3.30472 19.4304 4.89935L17.8292 6.53487L13.6003 10.7463C12.9434 11.4006 12.5739 12.3001 12.5328 13.2405C12.5328 14.1809 12.9023 15.0805 13.5592 15.7347C14.2162 16.3889 15.0784 16.7569 16.0227 16.7569C16.0227 16.7569 16.0227 16.7569 16.0637 16.7569C17.008 16.7569 17.9113 16.3889 18.5682 15.6938L24.3573 9.92858L37.0439 22.563C37.4134 22.931 37.6187 23.4216 37.6187 23.9532C37.6597 24.4847 37.4545 24.9754 37.0849 25.3434Z" stroke="white" mask="url(#path-1-outside-1_276_310)"/>
</svg>
